<svg width="30" height="30" viewBox="0 0 30 30" fill="none" xmlns="http://www.w3.org/2000/svg">
<path d="M28.75 30C29.4404 30 30 29.4404 30 28.75V1.25C30 0.559644 29.4404 0 28.75 0H1.25C0.559644 0 0 0.559644 0 1.25V28.75C0 29.4404 0.559644 30 1.25 30H28.75Z" fill="#69ACE0"/>
<path d="M25 8.7971C24.2642 9.12344 23.4734 9.34405 22.6433 9.44321C23.4905 8.93541 24.1411 8.13127 24.4475 7.1731C23.6547 7.64333 22.7765 7.98481 21.8419 8.16885C21.0934 7.37135 20.027 6.87305 18.8469 6.87305C16.5807 6.87305 14.7435 8.71023 14.7435 10.9762C14.7435 11.2978 14.7798 11.6109 14.8497 11.9113C11.4396 11.7402 8.4161 10.1066 6.39231 7.62411C6.03911 8.23015 5.83679 8.93498 5.83679 9.68697C5.83679 11.1105 6.5612 12.3664 7.66218 13.1023C6.98957 13.081 6.35688 12.8964 5.80364 12.589C5.80335 12.6062 5.80329 12.6233 5.80329 12.6406C5.80329 14.6287 7.21767 16.2872 9.09479 16.6641C8.75045 16.7578 8.38795 16.808 8.01375 16.808C7.74934 16.808 7.49229 16.7823 7.24175 16.7344C7.76391 18.3645 9.27925 19.5509 11.0748 19.584C9.67047 20.6845 7.90122 21.3405 5.97882 21.3405C5.64761 21.3405 5.32098 21.321 5 21.2832C6.81589 22.4474 8.9727 23.1266 11.2899 23.1266C18.8373 23.1266 22.9644 16.8743 22.9644 11.452C22.9644 11.2741 22.9604 11.0971 22.9526 10.9212C23.7542 10.3427 24.4499 9.61996 25 8.7971Z" fill="white"/>
</svg>
