<svg width="30" height="30" viewBox="0 0 30 30" fill="none" xmlns="http://www.w3.org/2000/svg">
<path d="M28.75 30C29.4404 30 30 29.4404 30 28.75V1.25C30 0.559644 29.4404 0 28.75 0H1.25C0.559644 0 0 0.559644 0 1.25V28.75C0 29.4404 0.559644 30 1.25 30H28.75Z" fill="#E02D69"/>
<path d="M15 6.80187C17.67 6.80187 17.9862 6.81187 19.0406 6.86C20.1787 6.91187 21.235 7.14 22.0475 7.9525C22.86 8.765 23.0881 9.82125 23.14 10.9594C23.1881 12.0137 23.1981 12.33 23.1981 15C23.1981 17.67 23.1881 17.9862 23.14 19.0406C23.0881 20.1787 22.86 21.235 22.0475 22.0475C21.235 22.86 20.1787 23.0881 19.0406 23.14C17.9862 23.1881 17.67 23.1981 15 23.1981C12.33 23.1981 12.0137 23.1881 10.9594 23.14C9.82125 23.0881 8.765 22.86 7.9525 22.0475C7.14 21.235 6.91187 20.1787 6.86 19.0406C6.81187 17.9862 6.80187 17.67 6.80187 15C6.80187 12.33 6.81187 12.0137 6.86 10.9594C6.91187 9.82125 7.14 8.765 7.9525 7.9525C8.765 7.14 9.82125 6.91187 10.9594 6.86C12.0137 6.81187 12.33 6.80187 15 6.80187ZM15 5C12.2844 5 11.9437 5.01125 10.8769 5.06C9.25187 5.13437 7.82437 5.5325 6.67812 6.67812C5.5325 7.82375 5.13437 9.25125 5.06 10.8769C5.01125 11.9437 5 12.2844 5 15C5 17.7156 5.01125 18.0562 5.06 19.1231C5.13437 20.7481 5.5325 22.1756 6.67812 23.3219C7.82375 24.4675 9.25125 24.8656 10.8769 24.94C11.9437 24.9887 12.2844 25 15 25C17.7156 25 18.0562 24.9887 19.1231 24.94C20.7481 24.8656 22.1756 24.4675 23.3219 23.3219C24.4675 22.1762 24.8656 20.7487 24.94 19.1231C24.9887 18.0562 25 17.7156 25 15C25 12.2844 24.9887 11.9437 24.94 10.8769C24.8656 9.25187 24.4675 7.82437 23.3219 6.67812C22.1762 5.5325 20.7487 5.13437 19.1231 5.06C18.0562 5.01125 17.7156 5 15 5Z" fill="white"/>
<path d="M15 9.86499C12.1637 9.86499 9.86499 12.1644 9.86499 15C9.86499 17.8356 12.1644 20.135 15 20.135C17.8356 20.135 20.135 17.8356 20.135 15C20.135 12.1644 17.8362 9.86499 15 9.86499ZM15 18.3331C13.1587 18.3331 11.6669 16.8406 11.6669 15C11.6669 13.1587 13.1594 11.6669 15 11.6669C16.8412 11.6669 18.3331 13.1594 18.3331 15C18.3331 16.8412 16.8412 18.3331 15 18.3331Z" fill="white"/>
<path d="M20.3382 10.8619C21.0009 10.8619 21.5382 10.3247 21.5382 9.66191C21.5382 8.99917 21.0009 8.46191 20.3382 8.46191C19.6754 8.46191 19.1382 8.99917 19.1382 9.66191C19.1382 10.3247 19.6754 10.8619 20.3382 10.8619Z" fill="white"/>
</svg>
