<svg width="30" height="30" viewBox="0 0 30 30" fill="none" xmlns="http://www.w3.org/2000/svg">
<g clip-path="url(#clip0)">
<path d="M28.75 30C29.4404 30 30 29.4404 30 28.75V1.25C30 0.559644 29.4404 0 28.75 0H1.25C0.559644 0 0 0.559644 0 1.25V28.75C0 29.4404 0.559644 30 1.25 30H28.75Z" fill="#39579A"/>
<path d="M15.9495 30.0001V18.1251H11.875V13.7501H15.9495V10.5159C15.9495 6.64106 18.3161 4.53113 21.7727 4.53113C23.4285 4.53113 24.8516 4.6544 25.2663 4.7095V8.75895L22.8689 8.76004C20.989 8.76004 20.625 9.65335 20.625 10.9642V13.7501H25L24.375 18.1251H20.625V30.0001H15.9495Z" fill="white"/>
</g>
<defs>
<clipPath id="clip0">
<rect width="30" height="30" fill="white"/>
</clipPath>
</defs>
</svg>
