<svg width="189" height="48" viewBox="0 0 189 48" fill="none" xmlns="http://www.w3.org/2000/svg">
<path d="M29.9032 19.5H27.2759C27.0967 19.5 26.9437 19.6305 26.9152 19.8082L25.8532 26.5448C25.8322 26.6775 25.9349 26.7975 26.0692 26.7975H27.4169C27.5429 26.7975 27.6494 26.706 27.6697 26.5815L27.9712 24.672C27.9989 24.4943 28.1519 24.3638 28.3319 24.3638H29.1629C30.8932 24.3638 31.8922 23.526 32.1532 21.8663C32.2709 21.1403 32.1577 20.5702 31.8179 20.1705C31.4444 19.7317 30.7822 19.5 29.9032 19.5ZM30.2062 21.96C30.0629 22.9028 29.3422 22.9028 28.6454 22.9028H28.2494L28.5277 21.1417C28.5442 21.0352 28.6364 20.9573 28.7437 20.9573C29.3204 20.9573 29.8274 20.9332 30.0787 21.2272C30.2167 21.39 30.2587 21.6293 30.2062 21.96Z" fill="#333333"/>
<path d="M11.1653 19.5H8.53803C8.35878 19.5 8.20578 19.6305 8.17728 19.8082L7.11528 26.5448C7.09428 26.6775 7.19703 26.7975 7.33203 26.7975H8.58603C8.76603 26.7975 8.91828 26.667 8.94678 26.4893L9.23328 24.672C9.26103 24.4943 9.41403 24.3638 9.59403 24.3638H10.425C12.1553 24.3638 13.1543 23.526 13.4153 21.8663C13.533 21.1403 13.4198 20.5702 13.08 20.1705C12.7065 19.7317 12.0443 19.5 11.1653 19.5ZM11.469 21.96C11.3258 22.9028 10.605 22.9028 9.90828 22.9028H9.51228L9.79053 21.1417C9.80703 21.0352 9.89928 20.9573 10.0065 20.9573H10.188C10.662 20.9573 11.1098 20.9572 11.3408 21.2272C11.4795 21.39 11.5208 21.6293 11.469 21.96Z" fill="#333333"/>
<path d="M19.0177 21.93H17.7599C17.6519 21.93 17.5604 22.0088 17.5439 22.1153L17.4884 22.467C17.3662 22.29 17.1239 21.8123 15.9149 21.8123C14.5252 21.8123 13.3379 22.8653 13.1069 24.3428C12.9869 25.08 13.1572 25.7843 13.5749 26.2755C13.9589 26.727 14.5064 26.9153 15.1597 26.9153C16.2802 26.9153 16.9012 26.1953 16.9012 26.1953L16.8449 26.5448C16.8239 26.6775 16.9267 26.7983 17.0609 26.7983H18.1942C18.3734 26.7983 18.5264 26.6678 18.5549 26.49L19.2352 22.1835C19.2554 22.05 19.1527 21.93 19.0177 21.93ZM17.2642 24.3788C17.1427 25.0973 16.5719 25.5803 15.8444 25.5803C15.4792 25.5803 15.1874 25.4625 14.9999 25.2405C14.8139 25.02 14.7434 24.7065 14.8027 24.357C14.9159 23.6445 15.4957 23.1465 16.2127 23.1465C16.5697 23.1465 16.8599 23.265 17.0512 23.4893C17.2439 23.715 17.3197 24.0308 17.2642 24.3788Z" fill="#333333"/>
<path d="M37.7557 21.93H36.498C36.39 21.93 36.2985 22.0088 36.282 22.1153L36.2265 22.467C36.1042 22.29 35.8612 21.8123 34.653 21.8123C33.2632 21.8123 32.076 22.8653 31.845 24.3428C31.725 25.08 31.8952 25.7843 32.313 26.2755C32.697 26.727 33.2445 26.9153 33.8977 26.9153C35.0182 26.9153 35.6392 26.1953 35.6392 26.1953L35.583 26.5448C35.562 26.6775 35.6647 26.7983 35.799 26.7983H36.9322C37.1115 26.7983 37.2645 26.6678 37.293 26.49L37.9732 22.1835C37.9927 22.05 37.89 21.93 37.7557 21.93ZM36.0022 24.3788C35.8807 25.0973 35.31 25.5803 34.5825 25.5803C34.2172 25.5803 33.9255 25.4625 33.738 25.2405C33.552 25.02 33.4815 24.7065 33.5407 24.357C33.654 23.6445 34.2337 23.1465 34.9507 23.1465C35.3077 23.1465 35.598 23.265 35.7892 23.4893C35.982 23.715 36.0577 24.0308 36.0022 24.3788Z" fill="#333333"/>
<path d="M25.7182 21.9299H24.4537C24.333 21.9299 24.2197 21.9899 24.1515 22.0897L22.407 24.6584L21.6675 22.1902C21.621 22.0357 21.4792 21.9299 21.318 21.9299H20.0752C19.9252 21.9299 19.8195 22.0777 19.8682 22.2194L21.2602 26.3062L19.9507 28.1542C19.848 28.2997 19.9515 28.4999 20.1292 28.4999H21.3922C21.5122 28.4999 21.624 28.4414 21.6922 28.3432L25.8975 22.2742C25.9987 22.1287 25.8945 21.9299 25.7182 21.9299Z" fill="#333333"/>
<path d="M39.2385 19.6852L38.16 26.5448C38.139 26.6775 38.2417 26.7975 38.376 26.7975H39.4605C39.6405 26.7975 39.7927 26.667 39.8212 26.4893L40.8847 19.7527C40.9057 19.62 40.803 19.5 40.668 19.5H39.4545C39.3465 19.5 39.255 19.5787 39.2385 19.6852Z" fill="#333333"/>
<path d="M1.5 37.5V10.5C1.5 8.85 2.85 7.5 4.5 7.5H43.5C45.15 7.5 46.5 8.85 46.5 10.5V37.5C46.5 39.15 45.15 40.5 43.5 40.5H4.5C2.85 40.5 1.5 39.15 1.5 37.5Z" stroke="#333333" stroke-width="2" stroke-miterlimit="10" stroke-linecap="round" stroke-linejoin="round"/>
<path d="M160.664 28.3711H163.04L164.527 19.6516H162.15L160.664 28.3711Z" fill="#333333"/>
<path d="M169.318 23.1525C168.487 22.749 167.979 22.4798 167.984 22.0718C167.984 21.7095 168.415 21.3218 169.345 21.3218C170.107 21.3098 170.72 21.465 171.337 21.7568L171.66 19.8668C171.188 19.6898 170.45 19.5 169.529 19.5C167.181 19.5 165.526 20.6827 165.513 22.3777C165.499 23.6302 166.694 24.3292 167.596 24.7462C168.52 25.1737 168.832 25.446 168.827 25.8278C168.821 26.412 168.088 26.679 167.405 26.679C166.351 26.679 165.819 26.5163 164.862 26.0828L164.528 28.035C165.083 28.278 166.11 28.4895 167.176 28.5C169.674 28.5 171.295 27.3307 171.314 25.521C171.322 24.5295 170.689 23.7743 169.318 23.1525Z" fill="#333333"/>
<path d="M177.754 19.6597H175.917C175.348 19.6597 174.922 19.8149 174.673 20.3827L171.143 28.3732H173.638C173.638 28.3732 174.046 27.2984 174.139 27.0629C174.412 27.0629 176.836 27.0667 177.182 27.0667C177.253 27.3719 177.472 28.3732 177.472 28.3732H179.677L177.754 19.6597ZM174.823 25.2794C174.921 25.0282 175.891 22.5374 176.085 22.0102C176.406 23.5132 176.093 22.0552 176.796 25.2794H174.823Z" fill="#333333"/>
<path d="M158.671 19.6583L156.344 25.6043L156.096 24.3961L155.263 20.3896C155.119 19.8376 154.702 19.6726 154.186 19.6538H150.353L150.323 19.8353C151.255 20.0611 152.089 20.3866 152.819 20.7916L154.932 28.3643L157.447 28.3613L161.188 19.6591H158.671V19.6583Z" fill="#333333"/>
<path d="M142.5 37.5V10.5C142.5 8.85 143.85 7.5 145.5 7.5H184.5C186.15 7.5 187.5 8.85 187.5 10.5V37.5C187.5 39.15 186.15 40.5 184.5 40.5H145.5C143.85 40.5 142.5 39.15 142.5 37.5Z" stroke="#333333" stroke-width="2" stroke-miterlimit="10" stroke-linecap="round" stroke-linejoin="round"/>
<g clip-path="url(#clip0)">
<path d="M72 37.5V10.5C72.0024 9.70508 72.3192 8.9434 72.8813 8.3813C73.4434 7.81921 74.2051 7.50237 75 7.5H114C114.795 7.50237 115.557 7.81921 116.119 8.3813C116.681 8.9434 116.998 9.70508 117 10.5V37.5C116.998 38.2949 116.681 39.0566 116.119 39.6187C115.557 40.1808 114.795 40.4976 114 40.5H75C74.2051 40.4976 73.4434 40.1808 72.8813 39.6187C72.3192 39.0566 72.0024 38.2949 72 37.5V37.5Z" stroke="#333333" stroke-width="2" stroke-miterlimit="10" stroke-linecap="round" stroke-linejoin="round"/>
<path opacity="0.85" d="M89.25 32.25C93.8063 32.25 97.5 28.5563 97.5 24C97.5 19.4437 93.8063 15.75 89.25 15.75C84.6937 15.75 81 19.4437 81 24C81 28.5563 84.6937 32.25 89.25 32.25Z" fill="#333333"/>
<path opacity="0.5" d="M99.75 32.25C104.306 32.25 108 28.5563 108 24C108 19.4437 104.306 15.75 99.75 15.75C95.1937 15.75 91.5 19.4437 91.5 24C91.5 28.5563 95.1937 32.25 99.75 32.25Z" fill="#333333"/>
</g>
<defs>
<clipPath id="clip0">
<rect width="48" height="48" fill="white" transform="translate(70.5)"/>
</clipPath>
</defs>
</svg>
