<svg width="138" height="24" viewBox="0 0 138 24" fill="none" xmlns="http://www.w3.org/2000/svg">
<path d="M4.03153 23L4 13H0V9H4V6.5C4 2.7886 6.29832 1 9.60914 1C11.1951 1 12.5581 1.11807 12.9553 1.17085V5.04948L10.6591 5.05052C8.85845 5.05052 8.50981 5.90614 8.50981 7.16171V9H13.75L11.75 13H8.50981V23H4.03153Z" fill="#333333"/>
<path d="M126 2.16224C129.204 2.16224 129.584 2.17424 130.849 2.23224C132.215 2.29424 133.482 2.56824 134.457 3.54324C135.432 4.51824 135.706 5.78524 135.768 7.15124C135.826 8.41624 135.838 8.79624 135.838 12.0002C135.838 15.2042 135.826 15.5842 135.768 16.8492C135.706 18.2152 135.432 19.4822 134.457 20.4572C133.482 21.4322 132.215 21.7062 130.849 21.7682C129.584 21.8262 129.204 21.8382 126 21.8382C122.796 21.8382 122.416 21.8262 121.151 21.7682C119.785 21.7062 118.518 21.4322 117.543 20.4572C116.568 19.4822 116.294 18.2152 116.232 16.8492C116.174 15.5842 116.162 15.2042 116.162 12.0002C116.162 8.79624 116.174 8.41624 116.232 7.15124C116.294 5.78524 116.568 4.51824 117.543 3.54324C118.518 2.56824 119.785 2.29424 121.151 2.23224C122.416 2.17424 122.796 2.16224 126 2.16224ZM126 0.000244141C122.741 0.000244141 122.332 0.0142441 121.052 0.0722441C119.102 0.161244 117.389 0.639244 116.014 2.01424C114.639 3.38924 114.161 5.10224 114.072 7.05224C114.014 8.33224 114 8.74124 114 12.0002C114 15.2592 114.014 15.6682 114.072 16.9482C114.161 18.8982 114.639 20.6112 116.014 21.9862C117.389 23.3612 119.102 23.8392 121.052 23.9282C122.332 23.9862 122.741 24.0002 126 24.0002C129.259 24.0002 129.668 23.9862 130.948 23.9282C132.898 23.8392 134.611 23.3612 135.986 21.9862C137.361 20.6112 137.839 18.8982 137.928 16.9482C137.986 15.6682 138 15.2592 138 12.0002C138 8.74124 137.986 8.33224 137.928 7.05224C137.839 5.10224 137.361 3.38924 135.986 2.01424C134.611 0.639244 132.898 0.161244 130.948 0.0722441C129.668 0.0142441 129.259 0.000244141 126 0.000244141Z" fill="#333333"/>
<path d="M126 5.83813C122.597 5.83813 119.838 8.59713 119.838 12.0001C119.838 15.4031 122.597 18.1621 126 18.1621C129.403 18.1621 132.162 15.4031 132.162 12.0001C132.162 8.59713 129.403 5.83813 126 5.83813ZM126 16.0001C123.791 16.0001 122 14.2091 122 12.0001C122 9.79113 123.791 8.00013 126 8.00013C128.209 8.00013 130 9.79113 130 12.0001C130 14.2091 128.209 16.0001 126 16.0001Z" fill="#333333"/>
<path d="M132.406 7.03418C133.201 7.03418 133.846 6.38944 133.846 5.59412C133.846 4.79879 133.201 4.15405 132.406 4.15405C131.611 4.15405 130.966 4.79879 130.966 5.59412C130.966 6.38944 131.611 7.03418 132.406 7.03418Z" fill="#333333"/>
<path d="M58.0523 19.3266C57.7909 20.5897 57.9216 22.4845 58.0523 23.6213L59.3595 24.0002C60.0131 22.9897 60.9281 21.3476 61.3203 20.0845C61.451 19.3266 62.2353 16.4213 62.2353 16.4213C62.7582 17.4318 64.3268 18.1897 65.8954 18.1897C70.6013 18.1897 74 13.895 74 8.71603C74 3.78972 69.817 0.000244141 64.3268 0.000244141C57.6601 0.000244141 54 4.4213 54 9.2213C54 11.3687 55.1765 14.1476 57.1373 15.0318C57.3987 15.1581 57.5294 15.0318 57.6601 14.7792C57.6601 14.5266 57.9216 13.516 58.0523 13.0108C58.0523 12.8845 58.0523 12.7581 57.9216 12.6318C57.268 11.8739 56.7451 10.4845 56.7451 9.2213C56.7451 5.93709 59.3595 2.65288 63.8039 2.65288C67.5948 2.65288 70.3399 5.17919 70.3399 8.84235C70.3399 13.0108 68.1177 15.7897 65.3726 15.7897C63.8039 15.7897 62.6275 14.5266 63.0196 13.0108C63.4118 11.2423 64.3268 9.2213 64.3268 7.95814C64.3268 6.8213 63.6732 5.81077 62.366 5.81077C60.7974 5.81077 59.4902 7.32656 59.4902 9.47393C59.4902 10.7371 59.8824 11.7476 59.8824 11.7476C59.8824 11.7476 58.3137 18.1897 58.0523 19.3266Z" fill="#333333"/>
</svg>
