<svg width="138" height="40" viewBox="0 0 138 40" fill="none" xmlns="http://www.w3.org/2000/svg">
<rect x="0.5" y="0.5" width="137" height="39" rx="1.5" fill="white" stroke="#E02D69"/>
<path d="M57.288 14.2V24H58.94V14.2H57.288ZM65.7686 16.496C64.5086 16.496 63.5566 16.944 63.0246 17.98V16.552H61.4146V24H63.0246V20.038C63.1366 18.876 63.9066 18.022 65.1386 18.008C66.2586 18.008 66.9306 18.694 66.9306 19.814V24H68.5406V19.366C68.5406 17.588 67.5046 16.496 65.7686 16.496ZM74.9398 18.428L75.5278 17.238C74.8558 16.762 73.8618 16.482 72.9238 16.482C71.4958 16.482 70.1798 17.126 70.1798 18.638C70.1658 21.326 74.0858 20.472 74.0858 21.998C74.0858 22.558 73.5538 22.796 72.8678 22.796C72.0558 22.796 71.0198 22.446 70.3758 21.872L69.8018 23.02C70.5438 23.692 71.7058 24.056 72.7978 24.056C74.2958 24.056 75.6538 23.37 75.6538 21.844C75.6678 19.142 71.7058 19.884 71.7058 18.512C71.7058 17.98 72.1678 17.77 72.7978 17.77C73.4558 17.77 74.2818 18.022 74.9398 18.428ZM81.082 22.292C80.648 22.502 80.298 22.614 79.962 22.614C79.458 22.614 79.164 22.376 79.164 21.606V18.036H81.362V16.832H79.164V14.788H77.568V16.832H76.518V18.036H77.568V21.9C77.568 23.426 78.534 24.07 79.654 24.07C80.284 24.07 80.9 23.874 81.488 23.524L81.082 22.292ZM89.0232 24L89.0092 19.114C88.9952 17.476 87.9172 16.496 85.9992 16.496C84.5852 16.496 83.8292 16.818 82.7932 17.434L83.4512 18.554C84.1932 18.05 84.9352 17.798 85.6492 17.798C86.8252 17.798 87.4272 18.358 87.4272 19.296V19.52H85.1732C83.3812 19.534 82.3592 20.402 82.3592 21.76C82.3592 23.076 83.3672 24.07 84.9772 24.07C86.0552 24.07 86.9092 23.748 87.4412 23.09V24H89.0232ZM85.3132 22.796C84.4172 22.796 83.8712 22.362 83.8712 21.69C83.8712 20.976 84.3612 20.696 85.4112 20.696H87.4272V21.382C87.3432 22.194 86.4612 22.796 85.3132 22.796ZM96.3023 16.552V17.756C95.7843 16.944 94.9303 16.482 93.7823 16.496C91.8083 16.51 90.4783 17.938 90.4783 20.038C90.4783 22.18 91.8223 23.636 93.8383 23.636C94.9583 23.636 95.7983 23.188 96.3023 22.376V23.314C96.3023 24.602 95.3783 25.428 93.9643 25.428C93.0543 25.428 92.3263 25.134 91.6263 24.616L90.9403 25.778C91.8503 26.394 92.8723 26.758 94.0343 26.758C96.3723 26.758 97.8983 25.414 97.8983 23.272V16.552H96.3023ZM94.1603 22.376C92.8723 22.376 92.0043 21.424 91.9903 20.08C92.0043 18.75 92.8863 17.798 94.1603 17.798C95.4203 17.798 96.3023 18.736 96.3023 20.08C96.3023 21.424 95.4203 22.376 94.1603 22.376ZM101.743 18.036V16.552H100.133V24H101.743V20.108C101.869 18.834 102.821 17.952 104.319 18.036V16.496C103.143 16.496 102.247 17.028 101.743 18.036ZM111.39 24L111.376 19.114C111.362 17.476 110.284 16.496 108.366 16.496C106.952 16.496 106.196 16.818 105.16 17.434L105.818 18.554C106.56 18.05 107.302 17.798 108.016 17.798C109.192 17.798 109.794 18.358 109.794 19.296V19.52H107.54C105.748 19.534 104.726 20.402 104.726 21.76C104.726 23.076 105.734 24.07 107.344 24.07C108.422 24.07 109.276 23.748 109.808 23.09V24H111.39ZM107.68 22.796C106.784 22.796 106.238 22.362 106.238 21.69C106.238 20.976 106.728 20.696 107.778 20.696H109.794V21.382C109.71 22.194 108.828 22.796 107.68 22.796ZM123.261 16.496C121.903 16.496 120.909 17.042 120.433 18.288C120.083 17.154 119.173 16.496 117.843 16.496C116.611 16.496 115.659 16.944 115.141 17.994V16.552H113.545V24H115.141V20.318C115.141 19.016 115.925 18.036 117.213 17.994C118.305 17.994 118.963 18.68 118.963 19.814V24H120.573V20.318C120.573 19.016 121.343 18.036 122.617 17.994C123.709 17.994 124.381 18.68 124.381 19.814V24H125.991V19.366C125.991 17.588 124.969 16.496 123.261 16.496Z" fill="#E02D69"/>
<path d="M38.3333 40C39.2538 40 40 39.2538 40 38.3333V1.66667C40 0.746192 39.2538 0 38.3333 0H1.66667C0.746192 0 0 0.746192 0 1.66667V38.3333C0 39.2538 0.746192 40 1.66667 40H38.3333Z" fill="#E02D69"/>
<path d="M20.0001 9.06916C23.5601 9.06916 23.9817 9.08249 25.3876 9.14666C26.9051 9.21582 28.3134 9.51999 29.3967 10.6033C30.4801 11.6867 30.7842 13.095 30.8534 14.6125C30.9176 16.0183 30.9309 16.44 30.9309 20C30.9309 23.56 30.9176 23.9817 30.8534 25.3875C30.7842 26.905 30.4801 28.3133 29.3967 29.3967C28.3134 30.48 26.9051 30.7842 25.3876 30.8533C23.9817 30.9175 23.5601 30.9308 20.0001 30.9308C16.4401 30.9308 16.0184 30.9175 14.6126 30.8533C13.0951 30.7842 11.6867 30.48 10.6034 29.3967C9.52008 28.3133 9.21591 26.905 9.14675 25.3875C9.08258 23.9817 9.06925 23.56 9.06925 20C9.06925 16.44 9.08258 16.0183 9.14675 14.6125C9.21591 13.095 9.52008 11.6867 10.6034 10.6033C11.6867 9.51999 13.0951 9.21582 14.6126 9.14666C16.0184 9.08249 16.4401 9.06916 20.0001 9.06916ZM20.0001 6.66666C16.3792 6.66666 15.9251 6.68166 14.5026 6.74666C12.3359 6.84582 10.4326 7.37666 8.90425 8.90416C7.37675 10.4317 6.84591 12.335 6.74675 14.5025C6.68175 15.925 6.66675 16.3792 6.66675 20C6.66675 23.6208 6.68175 24.075 6.74675 25.4975C6.84591 27.6642 7.37675 29.5675 8.90425 31.0958C10.4317 32.6233 12.3351 33.1542 14.5026 33.2533C15.9251 33.3183 16.3792 33.3333 20.0001 33.3333C23.6209 33.3333 24.0751 33.3183 25.4976 33.2533C27.6642 33.1542 29.5676 32.6233 31.0959 31.0958C32.6234 29.5683 33.1542 27.665 33.2534 25.4975C33.3184 24.075 33.3334 23.6208 33.3334 20C33.3334 16.3792 33.3184 15.925 33.2534 14.5025C33.1542 12.3358 32.6234 10.4325 31.0959 8.90416C29.5684 7.37666 27.6651 6.84582 25.4976 6.74666C24.0751 6.68166 23.6209 6.66666 20.0001 6.66666Z" fill="white"/>
<path d="M20 13.1533C16.2183 13.1533 13.1533 16.2192 13.1533 20C13.1533 23.7808 16.2192 26.8467 20 26.8467C23.7808 26.8467 26.8467 23.7808 26.8467 20C26.8467 16.2192 23.7817 13.1533 20 13.1533ZM20 24.4442C17.545 24.4442 15.5558 22.4542 15.5558 20C15.5558 17.545 17.5458 15.5558 20 15.5558C22.455 15.5558 24.4442 17.5458 24.4442 20C24.4442 22.455 22.455 24.4442 20 24.4442Z" fill="white"/>
<path d="M27.1176 14.4825C28.0012 14.4825 28.7176 13.7661 28.7176 12.8825C28.7176 11.9988 28.0012 11.2825 27.1176 11.2825C26.2339 11.2825 25.5176 11.9988 25.5176 12.8825C25.5176 13.7661 26.2339 14.4825 27.1176 14.4825Z" fill="white"/>
</svg>
