<svg width="138" height="40" viewBox="0 0 138 40" fill="none" xmlns="http://www.w3.org/2000/svg">
<rect x="0.5" y="0.5" width="137" height="39" rx="1.5" fill="white" stroke="#39579A"/>
<path d="M38.3333 40C39.2538 40 40 39.2538 40 38.3333V1.66667C40 0.746192 39.2538 0 38.3333 0H1.66667C0.746192 0 0 0.746192 0 1.66667V38.3333C0 39.2538 0.746192 40 1.66667 40H38.3333Z" fill="#39579A"/>
<path d="M21.2659 40V24.1666H15.8333V18.3333H21.2659V14.0211C21.2659 8.85466 24.4214 6.04141 29.0302 6.04141C31.2379 6.04141 33.1353 6.20578 33.6883 6.27925V11.6785L30.4918 11.68C27.9853 11.68 27.4999 12.871 27.4999 14.6189V18.3333H33.3333L32.4999 24.1666H27.4999V40H21.2659Z" fill="white"/>
<path d="M58.288 14.2V24H59.94V19.982H64.392V18.512H59.94V15.684H64.854L64.868 14.2H58.288ZM72.2907 24L72.2767 19.114C72.2627 17.476 71.1847 16.496 69.2667 16.496C67.8527 16.496 67.0967 16.818 66.0607 17.434L66.7187 18.554C67.4607 18.05 68.2027 17.798 68.9167 17.798C70.0927 17.798 70.6947 18.358 70.6947 19.296V19.52H68.4407C66.6487 19.534 65.6267 20.402 65.6267 21.76C65.6267 23.076 66.6347 24.07 68.2447 24.07C69.3227 24.07 70.1767 23.748 70.7087 23.09V24H72.2907ZM68.5807 22.796C67.6847 22.796 67.1387 22.362 67.1387 21.69C67.1387 20.976 67.6287 20.696 68.6787 20.696H70.6947V21.382C70.6107 22.194 69.7287 22.796 68.5807 22.796ZM79.6959 18.75L80.5779 17.714C79.8919 16.93 78.8419 16.496 77.4979 16.496C75.2859 16.496 73.7459 18.036 73.7459 20.29C73.7459 22.53 75.2859 24.056 77.4979 24.056C78.9119 24.056 79.9899 23.552 80.6619 22.67L79.7659 21.774C79.2619 22.362 78.5059 22.67 77.5679 22.67C76.2799 22.67 75.3559 21.704 75.3559 20.29C75.3559 18.876 76.2799 17.91 77.5679 17.91C78.4639 17.896 79.1779 18.218 79.6959 18.75ZM85.1134 16.496C82.9014 16.51 81.3474 18.036 81.3474 20.29C81.3474 22.53 82.8594 24.056 85.1554 24.056C86.4434 24.056 87.5074 23.594 88.2354 22.796L87.3814 21.886C86.8354 22.446 86.0934 22.754 85.2814 22.754C84.1054 22.754 83.2234 22.04 82.9714 20.892H88.5994C88.7954 18.204 87.7314 16.496 85.1134 16.496ZM82.9434 19.716C83.1114 18.526 83.9514 17.784 85.1274 17.784C86.3454 17.784 87.1434 18.512 87.1994 19.716H82.9434ZM94.5619 16.496C93.3999 16.496 92.5039 16.972 91.9579 17.84V13.612H90.3479V24H91.9579V22.712C92.5039 23.58 93.3999 24.056 94.5899 24.056C96.7179 24.056 98.1179 22.53 98.1179 20.304C98.1179 18.036 96.6759 16.496 94.5619 16.496ZM94.2259 22.684C92.8959 22.684 91.9579 21.69 91.9579 20.248C91.9579 18.848 92.8959 17.84 94.2259 17.84C95.5559 17.84 96.4939 18.862 96.4939 20.248C96.4939 21.676 95.5559 22.684 94.2259 22.684ZM102.986 16.496C100.676 16.496 99.0935 18.022 99.0935 20.262C99.0935 22.516 100.676 24.056 102.986 24.056C105.282 24.056 106.864 22.516 106.864 20.262C106.864 18.022 105.282 16.496 102.986 16.496ZM102.986 17.868C104.316 17.868 105.254 18.862 105.254 20.29C105.254 21.732 104.316 22.712 102.986 22.712C101.642 22.712 100.704 21.732 100.704 20.29C100.704 18.862 101.642 17.868 102.986 17.868ZM111.736 16.496C109.426 16.496 107.844 18.022 107.844 20.262C107.844 22.516 109.426 24.056 111.736 24.056C114.032 24.056 115.614 22.516 115.614 20.262C115.614 18.022 114.032 16.496 111.736 16.496ZM111.736 17.868C113.066 17.868 114.004 18.862 114.004 20.29C114.004 21.732 113.066 22.712 111.736 22.712C110.392 22.712 109.454 21.732 109.454 20.29C109.454 18.862 110.392 17.868 111.736 17.868ZM122.418 24H124.322L121.354 19.436L124.112 16.552H122.264L118.974 19.884V13.612H117.364V24H118.974V21.914L120.234 20.584L122.418 24Z" fill="#39579A"/>
</svg>
