<svg width="138" height="40" viewBox="0 0 138 40" fill="none" xmlns="http://www.w3.org/2000/svg">
<rect x="0.5" y="0.5" width="137" height="39" rx="1.5" fill="white" stroke="#69ACE0"/>
<path d="M61.126 14.2V15.684H64.22V24H65.872V15.684H68.98V14.2H61.126ZM68.5882 16.552L71.3322 24H72.9842L74.8742 18.484L76.7642 24H78.4302L81.1462 16.552H79.5082L77.6042 22.404L75.7142 16.552H74.0482L72.1722 22.404L70.2402 16.552H68.5882ZM86.434 18.428L87.022 17.238C86.35 16.762 85.356 16.482 84.418 16.482C82.99 16.482 81.674 17.126 81.674 18.638C81.66 21.326 85.58 20.472 85.58 21.998C85.58 22.558 85.048 22.796 84.362 22.796C83.55 22.796 82.514 22.446 81.87 21.872L81.296 23.02C82.038 23.692 83.2 24.056 84.292 24.056C85.79 24.056 87.148 23.37 87.148 21.844C87.162 19.142 83.2 19.884 83.2 18.512C83.2 17.98 83.662 17.77 84.292 17.77C84.95 17.77 85.776 18.022 86.434 18.428ZM89.5661 13.458C89.0341 13.458 88.6281 13.864 88.6281 14.424C88.6281 14.97 89.0341 15.376 89.5661 15.376C90.0981 15.376 90.5041 14.97 90.5041 14.424C90.5041 13.864 90.0981 13.458 89.5661 13.458ZM88.7681 16.552V24H90.3641V16.552H88.7681ZM96.9886 18.428L97.5766 17.238C96.9046 16.762 95.9106 16.482 94.9726 16.482C93.5446 16.482 92.2286 17.126 92.2286 18.638C92.2146 21.326 96.1346 20.472 96.1346 21.998C96.1346 22.558 95.6026 22.796 94.9166 22.796C94.1046 22.796 93.0686 22.446 92.4246 21.872L91.8506 23.02C92.5926 23.692 93.7546 24.056 94.8466 24.056C96.3446 24.056 97.7026 23.37 97.7026 21.844C97.7166 19.142 93.7546 19.884 93.7546 18.512C93.7546 17.98 94.2166 17.77 94.8466 17.77C95.5046 17.77 96.3306 18.022 96.9886 18.428ZM103.131 22.292C102.697 22.502 102.347 22.614 102.011 22.614C101.507 22.614 101.213 22.376 101.213 21.606V18.036H103.411V16.832H101.213V14.788H99.6168V16.832H98.5668V18.036H99.6168V21.9C99.6168 23.426 100.583 24.07 101.703 24.07C102.333 24.07 102.949 23.874 103.537 23.524L103.131 22.292ZM108.008 16.496C105.796 16.51 104.242 18.036 104.242 20.29C104.242 22.53 105.754 24.056 108.05 24.056C109.338 24.056 110.402 23.594 111.13 22.796L110.276 21.886C109.73 22.446 108.988 22.754 108.176 22.754C107 22.754 106.118 22.04 105.866 20.892H111.494C111.69 18.204 110.626 16.496 108.008 16.496ZM105.838 19.716C106.006 18.526 106.846 17.784 108.022 17.784C109.24 17.784 110.038 18.512 110.094 19.716H105.838ZM114.782 18.036V16.552H113.172V24H114.782V20.108C114.908 18.834 115.86 17.952 117.358 18.036V16.496C116.182 16.496 115.286 17.028 114.782 18.036Z" fill="#69ACE0"/>
<path d="M38.3333 40C39.2538 40 40 39.2538 40 38.3333V1.66667C40 0.746192 39.2538 0 38.3333 0H1.66667C0.746192 0 0 0.746192 0 1.66667V38.3333C0 39.2538 0.746192 40 1.66667 40H38.3333Z" fill="#69ACE0"/>
<path d="M33.3334 11.7295C32.3523 12.1647 31.2979 12.4588 30.1912 12.591C31.3208 11.9139 32.1883 10.8418 32.5967 9.56419C31.5397 10.1912 30.3688 10.6465 29.1226 10.8919C28.1246 9.82852 26.7027 9.16412 25.1292 9.16412C22.1076 9.16412 19.6581 11.6137 19.6581 14.635C19.6581 15.0638 19.7065 15.4813 19.7997 15.8818C15.2528 15.6536 11.2215 13.4756 8.52316 10.1655C8.05223 10.9736 7.78247 11.9134 7.78247 12.916C7.78247 14.8141 8.74835 16.4886 10.2163 17.4698C9.3195 17.4414 8.47592 17.1952 7.73826 16.7855C7.73788 16.8083 7.7378 16.8312 7.7378 16.8542C7.7378 19.505 9.62364 21.7163 12.1265 22.2188C11.6673 22.3438 11.184 22.4107 10.6851 22.4107C10.3325 22.4107 9.9898 22.3764 9.65574 22.3126C10.352 24.4861 12.3724 26.0679 14.7665 26.1121C12.894 27.5794 10.535 28.454 7.97184 28.454C7.53023 28.454 7.09473 28.4281 6.66675 28.3776C9.08794 29.9299 11.9637 30.8356 15.0533 30.8356C25.1165 30.8356 30.6193 22.4991 30.6193 15.2694C30.6193 15.0322 30.614 14.7963 30.6035 14.5616C31.6724 13.7903 32.6 12.8267 33.3334 11.7295Z" fill="white"/>
</svg>
