<svg width="279" height="60" viewBox="0 0 279 60" fill="none" xmlns="http://www.w3.org/2000/svg">
<path d="M76.151 15.8351C75.0236 15.8351 74.2805 16.243 74.2805 17.059C74.2805 20.0171 83.7346 18.3343 83.7346 24.7602C83.7346 28.407 80.5065 30.2684 76.5098 30.2684C73.5119 30.2684 70.3864 29.1717 68.2339 27.4125L70.0533 23.7657C71.8978 25.3467 74.6904 26.4689 76.5609 26.4689C77.9444 26.4689 78.8154 25.9587 78.8154 25.0155C78.8154 21.981 69.3613 23.817 69.3613 17.4925C69.3613 14.1518 72.2051 12.0352 76.535 12.0352C79.1741 12.0352 81.8389 12.8512 83.709 14.0497L81.9412 17.7474C80.0451 16.6765 77.6368 15.8351 76.151 15.8351Z" fill="#333333"/>
<path d="M100.438 21.4196V30.1153H95.8777V22.7203C95.8777 21.1647 94.9808 20.1956 93.5202 20.1956C91.8295 20.2211 90.8043 21.4963 90.8043 23.3068V30.1157H86.2439V11.1938H90.8043V18.5633C91.778 16.9823 93.3664 16.1409 95.3904 16.1409C98.4394 16.1409 100.438 18.1812 100.438 21.4196Z" fill="#333333"/>
<path d="M117.526 23.2046C117.526 27.4634 114.502 30.2684 109.942 30.2684C105.381 30.2684 102.383 27.4634 102.383 23.2046C102.383 18.9713 105.381 16.1663 109.942 16.1663C114.502 16.1663 117.526 18.9717 117.526 23.2046ZM106.97 23.2559C106.97 25.3217 108.174 26.6987 109.942 26.6987C111.735 26.6987 112.94 25.3217 112.94 23.2559C112.94 21.216 111.735 19.8389 109.942 19.8389C108.174 19.8386 106.97 21.2156 106.97 23.2559Z" fill="#333333"/>
<path d="M135.074 23.2814C135.074 27.4888 132.563 30.2684 128.72 30.2684C126.953 30.2684 125.518 29.58 124.544 28.3303V35.0624H119.984V16.3194H124.544V18.1044C125.518 16.855 126.902 16.1663 128.618 16.1663C132.487 16.1663 135.074 18.9971 135.074 23.2814ZM130.488 23.1792C130.488 21.1392 129.284 19.7368 127.49 19.7368C125.748 19.7368 124.544 21.1392 124.544 23.1792C124.544 25.2195 125.748 26.5965 127.49 26.5965C129.284 26.5965 130.488 25.2195 130.488 23.1792Z" fill="#333333"/>
<path d="M147.242 12.2392V19.5324H154.493V12.2392H159.182V30.1153H154.493V23.2559H147.242V30.1156H142.554V12.2392H147.242Z" fill="#333333"/>
<path d="M174.988 21.1392V30.1157H170.504V28.5601C169.608 29.7073 168.198 30.3197 166.328 30.3197C163.356 30.3197 161.589 28.5346 161.589 26.01C161.589 23.3835 163.459 21.8789 166.892 21.828H170.505V21.6749C170.505 20.3742 169.608 19.6091 167.865 19.6091C166.713 19.6091 165.201 19.9916 163.715 20.7058L162.46 17.6455C164.637 16.6765 166.636 16.1409 168.916 16.1409C172.733 16.1409 174.962 17.9772 174.988 21.1392ZM167.455 14.8406L164.099 11.9079L168.198 10.48L170.914 14.8406H167.455ZM170.504 25.4489V24.2504H167.788C166.507 24.2504 165.867 24.7093 165.867 25.6784C165.867 26.622 166.559 27.2339 167.738 27.2339C169.095 27.2339 170.223 26.4943 170.504 25.4489Z" fill="#333333"/>
<path d="M192.229 21.4196V30.1153H187.694V22.7203C187.694 21.1647 186.772 20.1956 185.337 20.1956C183.8 20.2211 182.801 21.2669 182.621 22.8225V30.1157H178.061V16.3194H182.621V18.5633C183.595 16.9823 185.183 16.1409 187.207 16.1409C190.231 16.1409 192.229 18.1812 192.229 21.4196Z" fill="#333333"/>
<path d="M208.6 16.3194V28.8913C208.6 32.793 205.551 35.2409 201.068 35.2409C198.633 35.2409 196.43 34.4759 194.867 33.4559L196.456 30.3193C197.711 31.1862 199.249 31.6709 200.735 31.6709C202.81 31.6709 204.065 30.6255 204.065 29.019V27.5397C203.168 28.7128 201.836 29.3502 200.12 29.3502C196.661 29.3502 194.201 26.6983 194.201 22.6945C194.201 18.7673 196.584 16.1663 200.017 16.1663C201.76 16.1663 203.143 16.8292 204.066 18.0026V16.3194H208.6ZM204.065 22.8221C204.065 20.884 202.937 19.5837 201.272 19.5837C199.581 19.5837 198.454 20.9094 198.454 22.8221C198.454 24.7093 199.581 26.0351 201.272 26.0351C202.937 26.0354 204.065 24.7093 204.065 22.8221Z" fill="#333333"/>
<path d="M221.177 12.2392L229.325 23.0006V12.2392H233.68V30.1153H229.581L221.434 19.4047V30.1153H217.053V12.2392H221.177Z" fill="#333333"/>
<path d="M251.511 21.4196V30.1153H246.951V22.7203C246.951 21.1647 246.054 20.1956 244.593 20.1956C242.902 20.2211 241.877 21.4963 241.877 23.3068V30.1157H237.317V11.1938H241.877V18.5633C242.851 16.9823 244.439 16.1409 246.463 16.1409C249.513 16.1409 251.511 18.1812 251.511 21.4196Z" fill="#333333"/>
<path d="M266.908 21.1392V30.1157H262.424V28.5601C261.528 29.7073 260.118 30.3196 258.248 30.3196C255.276 30.3196 253.509 28.5346 253.509 26.01C253.509 23.3835 255.379 21.8789 258.812 21.8279H262.424V21.6749C262.424 20.3742 261.528 19.6091 259.785 19.6091C258.633 19.6091 257.121 19.9916 255.635 20.7058L254.38 17.6455C256.557 16.6765 258.556 16.1409 260.836 16.1409C264.653 16.1409 266.882 17.9772 266.908 21.1392ZM259.247 14.9169H256.557L259.017 11.6272H262.04L264.499 14.9169H261.809L260.528 13.0555L259.247 14.9169ZM262.424 25.4489V24.2504H259.708C258.427 24.2504 257.787 24.7093 257.787 25.6784C257.787 26.622 258.479 27.2339 259.657 27.2339C261.015 27.2339 262.142 26.4943 262.424 25.4489ZM262.142 33.5835C262.142 34.7311 261.297 35.598 260.144 35.598C258.991 35.598 258.171 34.7311 258.171 33.5835C258.146 32.4359 258.991 31.5945 260.144 31.5945C261.297 31.5945 262.142 32.4359 262.142 33.5835Z" fill="#333333"/>
<path d="M279 29.4015C278.001 29.988 276.617 30.3196 275.259 30.3196C272.569 30.3451 270.622 28.7641 270.622 25.9078V19.9916H268.7V16.9823H270.622V13.1573H275.157V16.9823H278.744V19.9916H275.157V25.1936C275.157 26.214 275.618 26.6729 276.412 26.6474C276.874 26.6474 277.463 26.4689 278.129 26.1881L279 29.4015Z" fill="#333333"/>
<path d="M73.2456 42.8684C71.136 42.8684 69.4399 44.5029 69.4399 46.5631C69.4399 48.6097 71.136 50.2709 73.2456 50.2709C74.2738 50.2709 75.2752 49.8457 76.0096 49.1547L76.664 49.8591C75.7426 50.723 74.4874 51.268 73.1922 51.268C70.4952 51.268 68.3584 49.1948 68.3584 46.5634C68.3584 43.9587 70.5219 41.8986 73.2325 41.8986C74.5141 41.8986 75.7558 42.417 76.6508 43.2543L76.0096 44.0249C75.2887 43.3067 74.2738 42.8684 73.2456 42.8684Z" fill="#C4C4C4"/>
<path d="M84.9556 46.9217V51.2276H83.9136V47.1878C83.9136 45.9384 83.166 45.1943 81.9242 45.1943C80.4286 45.2074 79.5475 46.2708 79.5475 47.799V51.228H78.5059V41.3667H79.5475V45.8055C80.0281 44.7155 80.9897 44.2106 82.2849 44.1975C83.9673 44.1971 84.9556 45.2205 84.9556 46.9217Z" fill="#C4C4C4"/>
<path d="M93.3802 44.2372V51.2279H92.3385V49.6462C91.8714 50.7361 90.9366 51.2541 89.6677 51.2676C88.0255 51.2676 87.0376 50.2308 87.0376 48.5431V44.2372H88.0793V48.2774C88.0793 49.5268 88.8133 50.2709 90.0288 50.2709C91.4841 50.2443 92.3389 49.1809 92.3389 47.6661V44.2372H93.3802Z" fill="#C4C4C4"/>
<path d="M96.0504 53.8462C95.463 53.8462 94.9952 53.6867 94.5684 53.3409L95.0091 52.517C95.3295 52.7431 95.6499 52.8494 95.997 52.8494C96.5445 52.8494 96.9984 52.5039 97.279 51.8392L97.5727 51.1748L94.6616 44.2372H95.7567L98.0935 50.0583L100.324 44.2372H101.392L98.1605 52.2247C97.7193 53.2877 96.9849 53.8462 96.0504 53.8462Z" fill="#C4C4C4"/>
<path d="M108.454 48.1179H102.713C102.886 49.5002 103.888 50.4037 105.263 50.4037C106.131 50.4037 106.892 50.0848 107.439 49.5133L108.013 50.1114C107.346 50.8424 106.358 51.2676 105.183 51.2676C103.113 51.2676 101.684 49.8191 101.684 47.7324C101.684 45.6457 103.127 44.2102 105.17 44.1971C107.44 44.1971 108.561 45.7523 108.454 48.1179ZM107.52 47.2937C107.453 45.938 106.545 45.061 105.17 45.061C103.821 45.061 102.86 45.9384 102.713 47.2937H107.52ZM104.128 43.0409H103.22L104.582 41.3266H105.597L106.959 43.0409H106.051L105.09 41.8316L104.128 43.0409Z" fill="#C4C4C4"/>
<path d="M116.679 46.9217V51.2276H115.637V47.1878C115.637 45.9384 114.89 45.1943 113.648 45.1943C112.259 45.2074 111.405 46.1244 111.285 47.4801V51.228H110.243V44.2372H111.285V45.7789C111.778 44.7159 112.727 44.2106 114.008 44.1975C115.691 44.1971 116.679 45.2205 116.679 46.9217Z" fill="#C4C4C4"/>
<path d="M124.222 41.9248V46.1379H129.857V41.9248H130.925V51.228H129.857V47.1081H124.222V51.228H123.154V41.9248H124.222Z" fill="#C4C4C4"/>
<path d="M137.975 51.2279V50.138C137.414 50.8956 136.519 51.2676 135.398 51.2676C133.942 51.2676 133.008 50.3506 133.008 49.1543C133.008 47.9315 133.983 47.1608 135.638 47.1473H137.948V46.709C137.948 45.6857 137.308 45.061 136.066 45.061C135.291 45.061 134.57 45.3533 133.836 45.8717L133.395 45.1407C134.303 44.5426 135.064 44.1971 136.266 44.1971C138.001 44.1971 138.963 45.1141 138.977 46.6027L138.99 51.2276H137.975V51.2279ZM137.962 48.8223V47.9719H135.772C134.597 47.9719 133.983 48.3305 133.983 49.115C133.983 49.8857 134.61 50.4041 135.598 50.4041C136.787 50.4037 137.695 49.8191 137.962 48.8223ZM135.799 43.0544L134.13 41.7387L135.198 41.2604L136.8 43.0544H135.799Z" fill="#C4C4C4"/>
<path d="M147.748 46.9217V51.2276H146.707V47.1878C146.707 45.9384 145.959 45.1943 144.717 45.1943C143.329 45.2074 142.474 46.1244 142.354 47.4801V51.228H141.312V44.2372H142.354V45.7789C142.848 44.7159 143.796 44.2106 145.078 44.1975C146.761 44.1971 147.748 45.2205 147.748 46.9217Z" fill="#C4C4C4"/>
<path d="M156.2 44.2372V50.4969C156.2 52.5436 154.798 53.8331 152.662 53.8331C151.554 53.8196 150.633 53.461 149.778 52.8097L150.258 52.0522C150.953 52.6233 151.687 52.9291 152.622 52.9426C154.157 52.9426 155.159 51.999 155.159 50.5239V49.4605C154.665 50.391 153.756 50.9225 152.568 50.9225C150.672 50.9225 149.364 49.5271 149.364 47.5467C149.364 45.5798 150.659 44.2106 152.542 44.1975C153.743 44.184 154.651 44.729 155.159 45.6595V44.2376H156.2V44.2372ZM155.159 47.5729C155.159 46.1109 154.157 45.061 152.755 45.061C151.34 45.061 150.352 46.1109 150.338 47.5729C150.352 49.0218 151.34 50.0714 152.755 50.0714C154.157 50.0714 155.159 49.0215 155.159 47.5729Z" fill="#C4C4C4"/>
<path d="M163.823 41.9248L169.431 49.4871V41.9248H170.486V51.228H169.392L163.783 43.6791V51.228H162.715V41.9248H163.823Z" fill="#C4C4C4"/>
<path d="M179.606 47.7193C179.606 49.806 178.124 51.2676 176.041 51.2676C173.945 51.2676 172.476 49.8056 172.476 47.7193C172.476 45.646 173.945 44.1975 176.041 44.1975C178.124 44.1971 179.606 45.6457 179.606 47.7193ZM173.517 47.7324C173.517 49.3007 174.559 50.3637 176.041 50.3637C177.51 50.3637 178.565 49.3007 178.565 47.7324C178.565 46.1906 177.51 45.1142 176.041 45.1142C174.558 45.1142 173.517 46.191 173.517 47.7324ZM177.91 43.0143H177.002L176.04 41.805L175.079 43.0143H174.171L175.533 41.2997H176.548L177.91 43.0143ZM176.722 52.6634C176.722 53.062 176.428 53.3809 176.04 53.3809C175.653 53.3809 175.359 53.062 175.359 52.6634C175.359 52.2648 175.653 51.9589 176.04 51.9589C176.428 51.9589 176.722 52.2644 176.722 52.6634Z" fill="#C4C4C4"/>
<path d="M182.623 42.2302C182.623 42.6288 182.329 42.9346 181.942 42.9346C181.555 42.9346 181.261 42.6288 181.261 42.2302C181.261 41.8181 181.554 41.5258 181.942 41.5258C182.329 41.5258 182.623 41.8181 182.623 42.2302ZM182.463 44.2372V51.2279H181.435V44.2372H182.463Z" fill="#C4C4C4"/>
<path d="M197.898 46.5762C197.898 49.221 195.802 51.228 193.051 51.228H189.312V46.8955H187.737V46.2176H189.312V41.9248H193.091C195.815 41.9248 197.898 43.9314 197.898 46.5762ZM196.816 46.5893C196.816 44.4895 195.161 42.9081 193.064 42.9081H190.38V46.2172H193.358V46.8951H190.38V50.2443H193.104C195.188 50.2443 196.816 48.676 196.816 46.5893Z" fill="#C4C4C4"/>
<path d="M200.888 42.2302C200.888 42.6288 200.595 42.9346 200.207 42.9346C199.82 42.9346 199.526 42.6288 199.526 42.2302C199.526 41.8181 199.82 41.5258 200.207 41.5258C200.595 41.5258 200.888 41.8181 200.888 42.2302ZM200.888 52.6634C200.888 53.062 200.595 53.3809 200.207 53.3809C199.82 53.3809 199.526 53.062 199.526 52.6634C199.526 52.2648 199.82 51.9589 200.207 51.9589C200.595 51.9589 200.888 52.2644 200.888 52.6634ZM200.728 44.2372V51.2279H199.7V44.2372H200.728Z" fill="#C4C4C4"/>
<path d="M207.631 51.228V50.138C207.071 50.8956 206.176 51.2676 205.054 51.2676C203.599 51.2676 202.664 50.3506 202.664 49.1543C202.664 47.9315 203.639 47.1608 205.295 47.1474H207.605V46.7091C207.605 45.6857 206.964 45.061 205.722 45.061C204.947 45.061 204.226 45.3533 203.492 45.8718L203.051 45.1407C203.959 44.5426 204.72 44.1971 205.922 44.1971C207.658 44.1971 208.619 45.1142 208.633 46.6028L208.646 51.2276H207.631V51.228ZM207.618 48.8223V47.9719H205.428C204.253 47.9719 203.638 48.3305 203.638 49.115C203.638 49.8857 204.266 50.4041 205.254 50.4041C206.443 50.4037 207.351 49.8191 207.618 48.8223Z" fill="#C4C4C4"/>
<path d="M216.229 41.9248L221.837 49.4871V41.9248H222.892V51.228H221.798L216.189 43.6791V51.228H215.121V41.9248H216.229Z" fill="#C4C4C4"/>
<path d="M232.105 46.9217V51.2276H231.063V47.1878C231.063 45.9384 230.316 45.1943 229.074 45.1943C227.578 45.2074 226.697 46.2708 226.697 47.799V51.228H225.656V41.3667H226.697V45.8055C227.178 44.7155 228.139 44.2106 229.435 44.1975C231.117 44.1971 232.105 45.2205 232.105 46.9217Z" fill="#C4C4C4"/>
<path d="M238.794 51.2279V50.138C238.234 50.8956 237.339 51.2676 236.217 51.2676C234.761 51.2676 233.827 50.3506 233.827 49.1543C233.827 47.9315 234.802 47.1608 236.457 47.1473H238.768V46.709C238.768 45.6857 238.127 45.061 236.885 45.061C236.11 45.061 235.389 45.3533 234.655 45.8717L234.214 45.1407C235.122 44.5426 235.883 44.1971 237.085 44.1971C238.821 44.1971 239.782 45.1142 239.796 46.6027L239.809 51.2276H238.794V51.2279ZM238.781 48.8223V47.9719H236.591C235.416 47.9719 234.802 48.3305 234.802 49.115C234.802 49.8857 235.429 50.4041 236.418 50.4041C237.606 50.4037 238.514 49.8191 238.781 48.8223ZM235.99 43.0143H235.082L236.444 41.2997H237.459L238.821 43.0143H237.913L236.951 41.805L235.99 43.0143ZM237.646 52.6634C237.646 53.062 237.352 53.3809 236.964 53.3809C236.577 53.3809 236.283 53.062 236.283 52.6634C236.283 52.2648 236.577 51.9589 236.964 51.9589C237.352 51.9589 237.646 52.2644 237.646 52.6634Z" fill="#C4C4C4"/>
<path d="M245.764 50.7492C245.27 51.0816 244.736 51.2676 244.175 51.2676C243.146 51.2811 242.385 50.6695 242.385 49.2872V45.2601H241.371V44.4494H242.385V42.6154H243.413V44.4494H245.643V45.2601H243.413V49.1143C243.413 49.9647 243.747 50.3102 244.348 50.3102C244.709 50.2971 245.082 50.1773 245.469 49.9516L245.764 50.7492Z" fill="#C4C4C4"/>
<path d="M258.462 44.2503C258.462 45.3402 257.807 46.124 256.726 46.3501C258.074 46.5496 258.862 47.4266 258.862 48.7026C258.862 50.2844 257.607 51.228 255.484 51.228H251.492V41.9248H255.431C257.313 41.9248 258.462 42.7887 258.462 44.2503ZM257.366 44.4097C257.366 43.453 256.632 42.9081 255.377 42.9081H252.559V45.9515H255.377C256.632 45.9515 257.366 45.3934 257.366 44.4097ZM257.78 48.5697C257.78 47.5329 256.899 46.9217 255.377 46.9351H252.559V50.2443H255.377C256.899 50.2578 257.78 49.6462 257.78 48.5697Z" fill="#C4C4C4"/>
<path d="M265.271 51.2279V50.138C264.71 50.8956 263.815 51.2676 262.693 51.2676C261.238 51.2676 260.303 50.3506 260.303 49.1543C260.303 47.9315 261.278 47.1608 262.934 47.1473H265.244V46.709C265.244 45.6857 264.603 45.061 263.361 45.061C262.587 45.061 261.866 45.3533 261.131 45.8717L260.69 45.1407C261.599 44.5426 262.359 44.1971 263.562 44.1971C265.297 44.1971 266.259 45.1142 266.272 46.6027L266.285 51.2276H265.271V51.2279ZM265.257 48.8223V47.9719H263.067C261.893 47.9719 261.278 48.3305 261.278 49.115C261.278 49.8857 261.906 50.4041 262.894 50.4041C264.082 50.4037 264.99 49.8191 265.257 48.8223ZM262.734 42.3631L262.186 42.1636C262.28 41.5654 262.76 41.1934 263.401 41.1934C264.109 41.1934 264.563 41.6586 264.563 42.2833C264.563 42.8017 264.296 43.1607 263.829 43.5193L263.281 43.3333C263.722 42.9878 263.989 42.6954 263.989 42.3099C263.989 42.0176 263.789 41.7784 263.401 41.7784C263.014 41.7784 262.773 42.0041 262.734 42.3631Z" fill="#C4C4C4"/>
<path d="M275.044 46.9217V51.2276H274.002V47.1878C274.002 45.9384 273.255 45.1943 272.013 45.1943C270.624 45.2074 269.77 46.1244 269.65 47.4801V51.228H268.608V44.2372H269.65V45.7789C270.143 44.7159 271.092 44.2106 272.373 44.1975C274.056 44.1971 275.044 45.2205 275.044 46.9217Z" fill="#C4C4C4"/>
<path d="M20.8414 27.2085C21.099 27.2085 21.3389 27.0449 21.4228 26.7878C21.5269 26.4681 21.3513 26.1249 21.0302 26.0208L15.0588 24.0898C14.7376 23.9861 14.3924 24.1609 14.2882 24.4806C14.1837 24.8002 14.3597 25.1435 14.6808 25.2475L20.6522 27.1785C20.7154 27.1987 20.779 27.2085 20.8414 27.2085Z" fill="#FFBAD4"/>
<path d="M30.141 0C13.4944 0 0 13.4313 0 30C0 46.5687 13.4944 60 30.141 60C46.7875 60 60.2819 46.5687 60.2819 30C60.2819 13.4313 46.7875 0 30.141 0ZM51.249 26.4865C50.1464 28.2528 47.1417 32.2944 42.1417 33.4877C45.4826 37.3785 45.5262 42.4065 45.375 44.4805C45.3352 45.0303 44.8591 45.4469 44.3063 45.417C43.7892 45.3889 43.0905 45.3298 42.2756 45.2074C41.9954 45.1651 41.7325 45.3552 41.6859 45.6337C41.5513 46.4429 41.3918 47.1223 41.2587 47.6205C41.1166 48.1531 40.5713 48.475 40.0335 48.3429C38.0051 47.845 33.2145 46.2498 30.5291 41.8851C27.8436 46.2498 23.053 47.845 21.0246 48.3429C20.4868 48.475 19.9419 48.1531 19.7998 47.6205C19.6666 47.1223 19.5072 46.4425 19.3726 45.6337C19.3263 45.3556 19.0635 45.1654 18.7829 45.2074C17.968 45.3298 17.2693 45.3889 16.7522 45.417C16.1994 45.4469 15.7233 45.0303 15.6835 44.4805C15.5323 42.4065 15.5759 37.3785 18.9168 33.4877C13.9164 32.2944 10.912 28.2528 9.80944 26.4865C9.51725 26.0182 9.65639 25.4029 10.1212 25.1034C10.5563 24.8235 11.1561 24.4626 11.8879 24.085C12.1395 23.9551 12.2399 23.6474 12.1132 23.3951C11.7443 22.6615 11.472 22.0185 11.2855 21.5379C11.0858 21.0236 11.337 20.4445 11.8499 20.2368C13.7851 19.453 18.6028 17.9405 23.3528 19.9003C22.9477 14.7983 25.8817 10.7053 27.2288 9.11566C27.5857 8.69457 28.2171 8.63581 28.6465 8.98353C29.0481 9.3088 29.5788 9.76544 30.1654 10.3411C30.3673 10.5391 30.6923 10.5391 30.8942 10.3411C31.4812 9.76544 32.0115 9.3088 32.4131 8.98353C32.8426 8.63581 33.474 8.69457 33.8308 9.11566C35.1779 10.7053 38.1119 14.7983 37.7068 19.9003C42.4568 17.9405 47.2745 19.4527 49.2093 20.2368C49.7222 20.4445 49.9731 21.024 49.7738 21.5379C49.5872 22.0188 49.315 22.6619 48.9461 23.3951C48.8193 23.6474 48.9197 23.9551 49.1713 24.085C49.9028 24.4626 50.5029 24.8235 50.938 25.1034C51.4025 25.4029 51.5416 26.0182 51.249 26.4865Z" fill="#FFBAD4"/>
<path d="M30.5294 20.2024C30.8671 20.2024 31.1409 19.9299 31.1409 19.5938V13.3445C31.1409 13.0084 30.8671 12.7359 30.5294 12.7359C30.1917 12.7359 29.918 13.0084 29.918 13.3445V19.5938C29.918 19.9299 30.1917 20.2024 30.5294 20.2024Z" fill="#FFBAD4"/>
<path d="M34.7364 32.7013C34.6266 32.7013 34.5209 32.717 34.4193 32.7444L32.0054 30.3417H35.42C35.6321 30.7059 36.027 30.9522 36.4794 30.9522C37.1548 30.9522 37.7038 30.4054 37.7038 29.7331C37.7038 29.0609 37.1544 28.5141 36.4794 28.5141C36.027 28.5141 35.6321 28.76 35.42 29.1242H32.0054L34.4201 26.7208C34.5213 26.7477 34.6266 26.7635 34.736 26.7635C35.4114 26.7635 35.9608 26.2166 35.9608 25.5444C35.9608 24.8721 35.4114 24.3253 34.736 24.3253C34.0606 24.3253 33.5115 24.8721 33.5115 25.5444C33.5115 25.6537 33.5273 25.7596 33.5548 25.8603L31.1405 28.2633V24.8646C31.5064 24.6535 31.7539 24.2605 31.7539 23.8102C31.7539 23.138 31.2044 22.5912 30.529 22.5912C29.8536 22.5912 29.3046 23.138 29.3046 23.8102C29.3046 24.2605 29.5517 24.6535 29.9176 24.8646V28.2633L27.5033 25.8603C27.5307 25.7592 27.5465 25.6537 27.5465 25.5444C27.5465 24.8721 26.9971 24.3253 26.3221 24.3253C25.6471 24.3253 25.0973 24.8721 25.0973 25.5444C25.0973 26.2166 25.6467 26.7635 26.3221 26.7635C26.4315 26.7635 26.5372 26.7477 26.6384 26.7208L29.053 29.1242H25.6384C25.4263 28.76 25.0315 28.5141 24.5791 28.5141C23.9037 28.5141 23.3542 29.0609 23.3542 29.7331C23.3542 30.4054 23.9037 30.9522 24.5791 30.9522C25.0315 30.9522 25.4263 30.7059 25.6384 30.3417H29.053L26.6391 32.7444C26.5379 32.7174 26.4319 32.7017 26.3225 32.7017C25.6471 32.7017 25.0976 33.2485 25.0976 33.9208C25.0976 34.593 25.6471 35.1399 26.3225 35.1399C26.9979 35.1399 27.5469 34.593 27.5469 33.9208C27.5469 33.8115 27.5311 33.7063 27.504 33.6053L29.9179 31.2026V34.6013C29.552 34.8124 29.305 35.2054 29.305 35.6557C29.305 36.3279 29.8544 36.8747 30.5294 36.8747C31.2048 36.8747 31.7542 36.3279 31.7542 35.6557C31.7542 35.2054 31.5068 34.812 31.1409 34.6013V31.2026L33.5548 33.6053C33.5277 33.7059 33.5119 33.8115 33.5119 33.9204C33.5119 34.5927 34.0613 35.1395 34.7364 35.1395C35.4118 35.1395 35.9612 34.5927 35.9612 33.9204C35.9612 33.2478 35.4118 32.7013 34.7364 32.7013Z" fill="#FFBAD4"/>
<path d="M24.9014 37.4425C24.628 37.2445 24.2455 37.3052 24.0473 37.5773L20.3571 42.6329C20.1585 42.905 20.2191 43.2853 20.4925 43.483C20.6012 43.5616 20.7268 43.5994 20.8512 43.5994C21.0404 43.5994 21.2269 43.5122 21.3465 43.3482L25.0368 38.2926C25.2353 38.0208 25.1744 37.6402 24.9014 37.4425Z" fill="#FFBAD4"/>
<path d="M45.9993 24.0895L40.0278 26.0205C39.7067 26.1245 39.5311 26.4678 39.6352 26.7874C39.7191 27.0446 39.959 27.2081 40.2166 27.2081C40.2791 27.2081 40.343 27.1984 40.4058 27.1782L46.3772 25.2472C46.6983 25.1431 46.874 24.7999 46.7698 24.4802C46.6656 24.1606 46.3204 23.9854 45.9993 24.0895Z" fill="#FFBAD4"/>
<path d="M37.0115 37.5773C36.813 37.3052 36.4305 37.2449 36.1575 37.4425C35.8841 37.6402 35.8236 38.0208 36.0221 38.2926L39.7124 43.3482C39.832 43.5122 40.0185 43.5994 40.2077 43.5994C40.3321 43.5994 40.4581 43.5616 40.5664 43.483C40.8398 43.2853 40.9003 42.9047 40.7018 42.6329L37.0115 37.5773Z" fill="#FFBAD4"/>
</svg>
